# xmcd
#
# Track frame offsets:
#	150
#	12598
#	29755
#	50424
#	70298
#	85346
#	103903
#	124324
#	146725
#	162534
#	181514
#	196340
#	215282
#	229464
#	246610
#	264015
#	278182
#	294334
#	307643
#	326866
#
# Disc length: 4586 seconds
#
# Revision: 1
# Processed by: cddbd v1.5.2PL0 Copyright (c) Steve Scherf et al.
# Submitted via: audiograbber 1.83.01
#
DISCID=3211e814
DTITLE=Various Artist - Winners 2012
DYEAR=2012
DGENRE=Country
TTITLE0=Shane Nicholson - Bad Machines
TTITLE1=O'Shea - Smash
TTITLE2=Keith Urban - Long Hot Summer
TTITLE3=Beccy Cole - Waitress
TTITLE4=Adam Harvey - You Don't Know My Love
TTITLE5=Aleyce Simmonds - Healing Hands Of Time
TTITLE6=The Bushwackers - I Am Australian
TTITLE7=Graeme Connors - The Mouth Of The River
TTITLE8=Jasmine Rae - Hunky Country Boys
TTITLE9=Graham Rodger - Son Of The Red Dirt Country
TTITLE10=Luke Dickens - True Love Never Dies
TTITLE11=Jetty Road - Serves You Right
TTITLE12=Kirsty Akers and Bob Evans - In Spite Of Ourselves
TTITLE13=Carter and Carter - Dance In The Rain
TTITLE14=Beccy Cole feat. Kasey Chambers - Millionaires
TTITLE15=Katrina Burgoyne - White Flag
TTITLE16=The Bobkatz - The Old HR
TTITLE17=Shane Nicholson with Paul Kelly - Whistling Cannonballs
TTITLE18=Dean Perrett and Lee Kernaghan - Channel Country Ground
TTITLE19=James Blundell - Move Into The City
EXTD=
EXTT0=
EXTT1=
EXTT2=
EXTT3=
EXTT4=
EXTT5=
EXTT6=
EXTT7=
EXTT8=
EXTT9=
EXTT10=
EXTT11=
EXTT12=
EXTT13=
EXTT14=
EXTT15=
EXTT16=
EXTT17=
EXTT18=
EXTT19=
PLAYORDER=
